<svg width="140" height="40" fill="none" xmlns="http://www.w3.org/2000/svg"><path d="M27.8 19.8a5 5 0 012.4-4.2 5.1 5.1 0 00-4-2.1c-1.7-.2-3.3 1-4.2 1-.9 0-2.2-1-3.6-1a5.4 5.4 0 00-4.5 2.8c-2 3.3-.5 8.2 1.4 11 1 1.3 2 2.7 3.4 2.7s2-.9 3.6-.9 2.1.9 3.6.9 2.4-1.4 3.3-2.7c.7-1 1.2-2 1.5-3.1-1.7-.7-2.9-2.5-2.9-4.4zM25 11.7c.9-1 1.3-2.2 1.2-3.5A5 5 0 0023 10c-.8.9-1.3 2.1-1.2 3.3 1.3 0 2.5-.5 3.3-1.5zM49.1 7.5c0 .5-.1.9-.4 1.2-.3.3-.7.5-1.3.5.6.2 1 .3 1.4.6.3.3.5.7.5 1.2 0 .6-.3 1.2-.8 1.5-.5.4-1.2.6-2.1.6-.8 0-1.5-.1-2-.4V12a4.7 4.7 0 002 .5c.7 0 1.2-.1 1.5-.4.3-.2.5-.6.5-1a1 1 0 00-.6-1c-.3-.2-.9-.3-1.6-.3h-1V9h1c.6 0 1.1-.2 1.5-.4.4-.2.5-.6.5-1a1 1 0 00-.3-.8c-.3-.2-.7-.3-1.1-.3h-1a4 4 0 00-1 .6l-.4-.6 1.1-.6 1.3-.1c.7 0 1.3.1 1.7.4.4.4.6.8.6 1.3zM54 13l-.2-.8c-.3.4-.6.6-.8.7l-1 .2c-.6 0-1-.1-1.3-.4-.3-.3-.4-.7-.4-1.2 0-1 .8-1.6 2.6-1.7h.9v-.3c0-.5-.1-.8-.3-1-.2-.2-.5-.3-.9-.3s-1 .2-1.5.4L51 8a3.8 3.8 0 011.8-.4c.6 0 1 .1 1.4.4.3.3.5.7.5 1.3V13H54zm-1.9-.6c.5 0 1-.1 1.2-.4.3-.3.5-.7.5-1.1v-.5h-.9a3 3 0 00-1.4.3c-.2.2-.4.5-.4.8 0 .3.1.5.3.7.2.2.4.2.7.2zm7.4-4H57V13h-.8V7.6h3.3v.7zM63 13c-.3 0-.7 0-1-.2l-.7-.6v3.1h-.8V7.6h.7v.8h.1a1.9 1.9 0 011.7-.8 2 2 0 011.7.7c.3.5.5 1.1.5 2 0 .9-.2 1.6-.6 2a2 2 0 01-1.6.8zM63 8.2c-.6 0-1 .2-1.2.5-.2.3-.4.8-.4 1.4v.2c0 .8.2 1.3.4 1.6.3.4.7.5 1.2.5s.8-.2 1.1-.5c.3-.4.4-1 .4-1.6 0-.7-.1-1.2-.4-1.5-.3-.4-.6-.6-1.1-.6zm3-.6h.8l1.1 3.1.5 1.5.3-.8L70 7.6h.8l-2.3 6.1a3 3 0 01-.8 1.3c-.3.3-.6.4-1 .4h-.8v-.7h.6c.5 0 1-.3 1.2-1l.3-.7-2.2-5.4zm6.8 2.3c1 0 1.5-.3 1.5-.9 0-.5-.4-.8-1.2-.8a3.2 3.2 0 00-1.5.4l-.3-.7 1.8-.3c.7 0 1.1 0 1.5.3.3.3.5.6.5 1 0 .7-.3 1-1 1.2l1 .6.2.8c0 .5-.2 1-.6 1.2-.4.3-1 .4-1.6.4-.8 0-1.4-.1-1.8-.3V12c.6.3 1.2.4 1.8.4.4 0 .8 0 1-.2.3-.2.4-.4.4-.7 0-.6-.5-1-1.5-1H72V10h.6zm4.6-2.3V12.2L80 7.6h1V13h-.7V8.4L77.5 13h-1V7.6h.8zm9.2.7h-1.8V13H84V8.3h-1.7v-.7h4.3v.7zm3.3 4.8c-.8 0-1.4-.2-1.9-.7-.4-.5-.7-1.2-.7-2 0-.9.2-1.6.7-2 .4-.6 1-.8 1.7-.8a2 2 0 011.6.6c.4.5.6 1 .6 1.8v.5H88c0 .6.2 1 .5 1.4.3.3.7.5 1.2.5.6 0 1.2-.1 1.7-.4v.8a4.1 4.1 0 01-1.7.3zm-.2-4.9c-.5 0-.8.2-1 .4a2 2 0 00-.5 1.2h2.8c0-.5-.1-.9-.3-1.2-.3-.2-.6-.4-1-.4zM100 9c0 .3-.1.6-.3.8-.2.2-.5.3-.9.3l1 .5c.3.2.4.5.4.8 0 .5-.2 1-.6 1.2-.4.3-.9.4-1.6.4h-2.4V7.6h2.4c1.3 0 2 .5 2 1.4zm-.7 2.4c0-.3 0-.5-.3-.6-.2-.2-.6-.2-1-.2h-1.5v1.7H98c1 0 1.4-.3 1.4-1zM99.3 9c0-.3-.1-.5-.3-.6a2 2 0 00-1-.1h-1.4v1.5h1.3l1-.2c.3-.1.4-.4.4-.6zM91 20.4v2.3h-1.4v1.5h1.5v5.1c0 1.8.8 2.5 2.7 2.5l1-.1v-1.5h-.7c-.9 0-1.2-.4-1.2-1.3v-4.7h2v-1.5h-2v-2.3H91zM99.9 31.9c2.6 0 4.2-1.8 4.2-4.7 0-3-1.6-4.7-4.2-4.7-2.7 0-4.3 1.8-4.3 4.7 0 3 1.6 4.7 4.3 4.7zm0-1.6c-1.6 0-2.5-1.1-2.5-3.1s1-3.1 2.5-3.1 2.4 1.1 2.4 3c0 2-.9 3.2-2.4 3.2zM105.5 31.7h1.8v-5.3c0-1.3 1-2.1 2.3-2.1h1v-1.7h-.8c-1.2 0-2.2.6-2.4 1.5h-.2v-1.4h-1.7v9zM115 24c1.4 0 2.2 1 2.3 2.4h-4.6c0-1.4 1-2.4 2.3-2.4zm2.3 5.3c-.4.7-1.1 1-2.2 1-1.4 0-2.3-1-2.4-2.5v-.1h6.4V27c0-2.9-1.5-4.6-4-4.6-2.6 0-4.2 1.8-4.2 4.7 0 3 1.6 4.7 4.2 4.7 2 0 3.5-1 3.9-2.6h-1.8zM79.4 28.4c.1 2.2 2 3.6 4.7 3.6 3 0 4.8-1.5 4.8-3.8 0-2-1-3-3.6-3.5l-1.4-.4c-1.6-.4-2.2-.9-2.2-1.7 0-1.2 1-1.9 2.5-1.9 1.4 0 2.4.7 2.6 1.9h1.9c-.1-2.1-2-3.6-4.5-3.6-2.7 0-4.5 1.5-4.5 3.7 0 1.8 1 2.9 3.3 3.4l1.6.4c1.6.4 2.3 1 2.3 1.9 0 1.1-1 2-2.6 2-1.7 0-2.9-.8-3-2h-2zM60.9 22.5c-1.2 0-2.3.6-2.9 1.7v-1.5h-1.8v12H58v-4.4h.1c.5 1 1.5 1.6 2.8 1.6 2.3 0 3.7-1.8 3.7-4.7 0-2.9-1.4-4.7-3.7-4.7zm-.5 7.8c-1.5 0-2.5-1.2-2.5-3.1 0-1.9 1-3 2.5-3s2.4 1 2.4 3-.9 3-2.4 3zM70.9 22.5c-1.2 0-2.3.6-2.9 1.7v-1.5h-1.8v12H68v-4.4h.1c.5 1 1.5 1.6 2.8 1.6 2.3 0 3.7-1.8 3.7-4.7 0-2.9-1.4-4.7-3.7-4.7zm-.5 7.8c-1.5 0-2.5-1.2-2.5-3.1 0-1.9 1-3 2.5-3s2.4 1 2.4 3-1 3-2.4 3zM53 31.7h2l-4.4-12.4h-2.1L44 31.7h2l1.1-3.3H52l1 3.3zm-3.6-10.1h.2l1.8 5.2h-3.8l1.8-5.2z" fill="#fff"/></svg>