<svg width="140" height="40" fill="none" xmlns="http://www.w3.org/2000/svg"><g filter="url(#filter0_ii)"><path d="M11.5 7.4a2 2 0 00-.5 1.4v22.1c0 .6.2 1.1.5 1.4v.1L24 20V19.7L11.5 7.3v.1z" fill="url(#paint0_linear)"/><path d="M28 24.1l-4-4v-.4l4-4.1h.1l5 2.8c1.3.8 1.3 2.1 0 3L28 24z" fill="url(#paint1_linear)"/><g filter="url(#filter1_i)"><path d="M28.1 24L24 20 11.5 32.3c.4.5 1.2.6 2 0l14.6-8.2z" fill="url(#paint2_linear)"/></g><path d="M28.1 15.6L13.5 7.3c-.8-.5-1.6-.4-2 .1l12.4 12.5 4.2-4.3z" fill="url(#paint3_linear)"/></g><path d="M50.6 15h-.8v-2h-5v2h-.7v-2.7h.5a13.6 13.6 0 001.9-6.4h3.2v6.4h1v2.6zM49 12.2V6.7h-1.6l-.6 2.8a13 13 0 01-1.2 2.8h3.4zM56.3 10.4a3 3 0 01-.6 2c-.5.5-1 .8-1.9.8-.4 0-.9-.2-1.2-.4-.4-.2-.7-.5-.9-1-.2-.4-.3-.9-.3-1.4 0-.9.2-1.6.7-2 .4-.6 1-.8 1.8-.8.7 0 1.3.3 1.8.8.4.5.6 1.1.6 2zm-4 0c0 .7 0 1.2.3 1.5.3.4.7.6 1.3.6.5 0 .9-.2 1.2-.6.2-.3.4-.8.4-1.5s-.2-1.2-.4-1.6c-.3-.3-.7-.5-1.3-.5-.5 0-.9.2-1.2.5-.2.4-.4.9-.4 1.6zM59.9 13.2c-.8 0-1.4-.3-1.8-.8a3 3 0 01-.7-2c0-.9.3-1.6.7-2 .4-.6 1-.8 1.8-.8a3.7 3.7 0 011.4.3l-.2.7a3.6 3.6 0 00-1.2-.3c-1 0-1.6.7-1.6 2.1 0 .7.1 1.2.4 1.5.2.4.6.5 1.2.5.4 0 .9 0 1.3-.2v.7a3 3 0 01-1.3.3zM66.1 8.4h-1.7v4.7h-.8V8.4h-1.8v-.7h4.3v.7zM66.3 7.7h.9l1.2 3 .4 1.6.3-.9 1.4-3.7h.8L69 13.8a3 3 0 01-.8 1.3c-.3.2-.6.4-1 .4l-.8-.1v-.7h.6c.5 0 1-.2 1.2-.9l.3-.7-2.2-5.4zM73 13h-.8V7.8h4.5v5.4H76V8.4H73v4.7zM79.2 7.7v2.2h3V7.7h.8v5.4h-.8v-2.5h-3v2.5h-.8V7.7h.8zM89.4 10.4a3 3 0 01-.7 2c-.4.5-1 .8-1.8.8-.5 0-.9-.2-1.3-.4-.3-.2-.6-.5-.8-1-.2-.4-.3-.9-.3-1.4 0-.9.2-1.6.6-2 .5-.6 1-.8 1.8-.8s1.4.3 1.8.8c.5.5.7 1.1.7 2zm-4.1 0c0 .7.1 1.2.4 1.5.3.4.7.6 1.2.6.6 0 1-.2 1.2-.6.3-.3.4-.8.4-1.5s-.1-1.2-.4-1.6c-.2-.3-.7-.5-1.2-.5s-1 .2-1.2.5c-.3.4-.4.9-.4 1.6zM97.7 9c0 .4 0 .7-.3.8l-.8.4c.5.1.8.2 1 .4.2.3.3.5.3.9 0 .5-.2.9-.5 1.1-.4.3-1 .5-1.6.5h-2.4V7.7h2.4c1.3 0 2 .5 2 1.3zm-.6 2.4c0-.2-.1-.5-.3-.6l-1.1-.2h-1.5v1.8h1.5c1 0 1.4-.3 1.4-1zM97 9.1c0-.2-.1-.4-.3-.5a2 2 0 00-1-.2h-1.5V10h1.4c.5 0 .8 0 1-.2.3 0 .4-.3.4-.6zM71 23.8a4.2 4.2 0 00-4.2 4.2c0 2.5 2 4.3 4.3 4.3s4.3-1.8 4.3-4.3-2-4.2-4.3-4.2zm0 6.8c-1.2 0-2.3-1-2.3-2.6 0-1.5 1.1-2.6 2.4-2.6 1.3 0 2.4 1 2.4 2.6 0 1.5-1.1 2.6-2.4 2.6zm-9.2-6.8a4.2 4.2 0 00-4.3 4.2c0 2.5 2 4.3 4.3 4.3S66 30.5 66 28s-2-4.2-4.3-4.2zm0 6.8c-1.3 0-2.4-1-2.4-2.6 0-1.5 1-2.6 2.4-2.6 1.3 0 2.4 1 2.4 2.6 0 1.5-1.1 2.6-2.4 2.6zM50.7 25v1.8H55c-.1 1-.4 1.7-1 2.2-.6.7-1.6 1.4-3.3 1.4a4.7 4.7 0 01-4.7-4.8 4.7 4.7 0 018-3.6l1.2-1.2c-1-1-2.5-1.8-4.5-1.8-3.6 0-6.7 3-6.7 6.6 0 3.6 3 6.6 6.7 6.6a6 6 0 004.6-1.9 6 6 0 001.6-4.2l-.1-1.1h-6.1zM96 26.5c-.3-1-1.4-2.7-3.6-2.7s-4 1.7-4 4.2a4.2 4.2 0 007.8 2.4l-1.5-1c-.5.7-1.2 1.2-2.1 1.2-1 0-1.6-.4-2-1.3l5.6-2.4-.2-.4zm-5.8 1.4c0-1.7 1.3-2.5 2.2-2.5.8 0 1.4.4 1.6.9l-3.8 1.6zM85.6 32h1.9V19.5h-2V32zm-3-7.3h-.1a3 3 0 00-2.3-1c-2.1 0-4 2-4 4.3 0 2.4 1.9 4.3 4 4.3 1 0 1.8-.5 2.3-1v.6c0 1.6-.8 2.5-2.2 2.5-1.2 0-1.9-.8-2.2-1.5l-1.6.7a4 4 0 003.8 2.5c2.1 0 4-1.3 4-4.4V24h-1.8v.7zm-2.2 5.9c-1.3 0-2.4-1-2.4-2.6 0-1.5 1-2.6 2.4-2.6 1.3 0 2.3 1.1 2.3 2.6s-1 2.6-2.3 2.6zm24.4-11h-4.5V32h1.9v-4.7h2.6c2 0 4-1.5 4-4 0-2.3-2-3.8-4-3.8zm0 6h-2.6v-4.4h2.6c1.4 0 2.2 1.2 2.2 2.2 0 1-.8 2.1-2.2 2.1zm11.5-1.9c-1.3 0-2.7.6-3.3 2l1.7.6c.3-.6 1-.9 1.7-.9 1 0 2 .6 2 1.6v.2c-.4-.2-1.1-.5-2-.5-1.8 0-3.6 1-3.6 2.8 0 1.7 1.5 2.7 3 2.7 1.3 0 2-.5 2.5-1.2v1h1.8v-4.8c0-2.2-1.6-3.5-3.8-3.5zm-.2 6.9c-.6 0-1.4-.3-1.4-1 0-1 1-1.4 2-1.4.8 0 1.1.2 1.6.4-.1 1.2-1.1 2-2.2 2zm10.6-6.6l-2.1 5.4h-.1l-2.2-5.4h-2l3.3 7.6-1.9 4.2h2l5-11.8h-2zm-16.8 8h1.9V19.5h-2V32z" fill="#fff"/><defs><linearGradient id="paint0_linear" x1="22.8" y1="8.6" x2="6" y2="25.4" gradientUnits="userSpaceOnUse"><stop stop-color="#00A0FF"/><stop offset="0" stop-color="#00A1FF"/><stop offset=".3" stop-color="#00BEFF"/><stop offset=".5" stop-color="#00D2FF"/><stop offset=".8" stop-color="#00DFFF"/><stop offset="1" stop-color="#00E3FF"/></linearGradient><linearGradient id="paint1_linear" x1="34.9" y1="19.9" x2="10.7" y2="19.9" gradientUnits="userSpaceOnUse"><stop stop-color="#FFE000"/><stop offset=".4" stop-color="#FFBD00"/><stop offset=".8" stop-color="orange"/><stop offset="1" stop-color="#FF9C00"/></linearGradient><linearGradient id="paint2_linear" x1="25.9" y1="22.2" x2="3.1" y2="44.9" gradientUnits="userSpaceOnUse"><stop stop-color="#FF3A44"/><stop offset="1" stop-color="#C31162"/></linearGradient><linearGradient id="paint3_linear" x1="8.3" y1="0" x2="18.5" y2="10.2" gradientUnits="userSpaceOnUse"><stop stop-color="#32A071"/><stop offset=".1" stop-color="#2DA771"/><stop offset=".5" stop-color="#15CF74"/><stop offset=".8" stop-color="#06E775"/><stop offset="1" stop-color="#00F076"/></linearGradient><filter id="filter0_ii" x="11" y="7" width="23.1" height="25.7" filterUnits="userSpaceOnUse" color-interpolation-filters="sRGB"><feFlood flood-opacity="0" result="BackgroundImageFix"/><feBlend in="SourceGraphic" in2="BackgroundImageFix" result="shape"/><feColorMatrix in="SourceAlpha" values="0 0 0 0 0 0 0 0 0 0 0 0 0 0 0 0 0 0 127 0" result="hardAlpha"/><feOffset dy="-.1"/><feComposite in2="hardAlpha" operator="arithmetic" k2="-1" k3="1"/><feColorMatrix values="0 0 0 0 0 0 0 0 0 0 0 0 0 0 0 0 0 0 0.12 0"/><feBlend in2="shape" result="effect1_innerShadow"/><feColorMatrix in="SourceAlpha" values="0 0 0 0 0 0 0 0 0 0 0 0 0 0 0 0 0 0 127 0" result="hardAlpha"/><feOffset dy=".1"/><feComposite in2="hardAlpha" operator="arithmetic" k2="-1" k3="1"/><feColorMatrix values="0 0 0 0 1 0 0 0 0 1 0 0 0 0 1 0 0 0 0.25 0"/><feBlend in2="effect1_innerShadow" result="effect2_innerShadow"/></filter><filter id="filter1_i" x="11.5" y="19.9" width="16.7" height="12.9" filterUnits="userSpaceOnUse" color-interpolation-filters="sRGB"><feFlood flood-opacity="0" result="BackgroundImageFix"/><feBlend in="SourceGraphic" in2="BackgroundImageFix" result="shape"/><feColorMatrix in="SourceAlpha" values="0 0 0 0 0 0 0 0 0 0 0 0 0 0 0 0 0 0 127 0" result="hardAlpha"/><feOffset dy="-.1"/><feComposite in2="hardAlpha" operator="arithmetic" k2="-1" k3="1"/><feColorMatrix values="0 0 0 0 0 0 0 0 0 0 0 0 0 0 0 0 0 0 0.08 0"/><feBlend in2="shape" result="effect1_innerShadow"/></filter></defs></svg>