<svg width="140" height="40" viewBox="0 0 140 40" fill="none" xmlns="http://www.w3.org/2000/svg">
<path d="M10.8276 31.1723C12.6553 33 15.5968 33 21.48 33H22.52C28.4032 33 31.3447 33 33.1724 31.1723C35 29.3447 35 26.4031 35 20.52V19.48C35 13.5968 35 10.6553 33.1724 8.82759C31.3447 7 28.4032 7 22.52 7H21.48C15.5968 7 12.6553 7 10.8276 8.82759C9 10.6553 9 13.5968 9 19.48V20.52C9 26.4031 9 29.3447 10.8276 31.1723Z" fill="#0077FF"/>
<path fill-rule="evenodd" clip-rule="evenodd" d="M29.0726 24.2812L27.3159 23.8423C27.1043 23.7816 26.9549 23.5913 26.9474 23.3701L26.7282 16.9042C26.6648 16.0485 26.0295 15.3678 25.3656 15.1673C25.3284 15.1561 25.2886 15.1712 25.2665 15.2033C25.244 15.2359 25.2527 15.281 25.284 15.3052C25.448 15.4322 25.8991 15.8463 25.8991 16.5606L25.8978 25.0145C25.8978 25.8308 25.1265 26.4295 24.3308 26.2307L22.5469 25.7851C22.3491 25.7159 22.2117 25.5317 22.2045 25.3192L21.9853 18.8529C21.9219 17.9971 21.2866 17.3165 20.6228 17.116C20.5855 17.1048 20.5457 17.1199 20.5236 17.1519C20.5012 17.1846 20.5099 17.2297 20.5411 17.2539C20.7051 17.3808 21.1563 17.7949 21.1563 18.5092L21.1549 25.556L21.156 25.5561V26.964C21.156 27.7802 20.3845 28.379 19.5889 28.1802L14.5502 26.9215C13.8497 26.7465 13.3585 26.1199 13.3585 25.4012V16.9341C13.3585 16.1178 14.1299 15.5191 14.9255 15.7178L18.1005 16.511V14.9846C18.1005 14.1683 18.8718 13.5696 19.6674 13.7684L22.8422 14.5614V13.0351C22.8422 12.2188 23.6135 11.62 24.4092 11.8188L29.448 13.0775C30.1485 13.2525 30.6396 13.8791 30.6396 14.5978V23.065C30.6396 23.8812 29.8683 24.4799 29.0726 24.2812Z" fill="white"/>
<path d="M53.6564 31.8257H51.5511L48.2103 27.1634H46.4529V31.8257H44.6608V19.5609H48.9759C49.8111 19.5609 50.5593 19.7232 51.2205 20.048C51.8816 20.3727 52.392 20.825 52.7516 21.4049C53.1228 21.9732 53.3085 22.6285 53.3085 23.3708C53.3085 24.2987 53.0242 25.0931 52.4559 25.7542C51.8875 26.4036 51.1277 26.8328 50.1765 27.0416L53.6564 31.8257ZM46.4529 21.2136V25.528H48.9759C49.7183 25.528 50.3157 25.3308 50.7681 24.9365C51.2321 24.5306 51.4641 24.0087 51.4641 23.3708C51.4641 22.7329 51.2321 22.2168 50.7681 21.8225C50.3157 21.4166 49.7183 21.2136 48.9759 21.2136H46.4529Z" fill="white"/>
<path d="M58.4121 31.9999C57.7741 31.9999 57.1999 31.8433 56.6895 31.5302C56.1791 31.2054 55.7789 30.7647 55.4889 30.208C55.1989 29.6397 55.054 29.0018 55.054 28.2943V22.8317H56.7591V28.1552C56.7591 28.8394 56.9505 29.3962 57.3333 29.8253C57.7161 30.2544 58.2091 30.469 58.8123 30.469C59.4387 30.469 59.9606 30.2486 60.3783 29.8079C60.7958 29.3671 61.0047 28.8162 61.0047 28.1552V22.8317H62.7099V31.8259H61.4918L61.0917 30.469C60.8017 30.9561 60.4188 31.333 59.9432 31.5997C59.4793 31.8665 58.9689 31.9999 58.4121 31.9999Z" fill="white"/>
<path d="M69.0665 31.9998C67.9413 31.9998 66.9611 31.7099 66.1259 31.1299C65.3023 30.5384 64.7397 29.7382 64.4381 28.7292L66.1607 28.4508C66.4971 29.1003 66.8973 29.5816 67.3613 29.8947C67.8253 30.1963 68.3937 30.3471 69.0665 30.3471C69.7509 30.3471 70.3076 30.1963 70.7369 29.8947C71.1661 29.5816 71.3806 29.1583 71.3806 28.6248C71.3806 28.2304 71.2588 27.8999 71.0153 27.6332C70.7832 27.3664 70.4875 27.1518 70.1279 26.9895C69.7683 26.8271 69.2985 26.6473 68.7185 26.4502C67.9413 26.195 67.3033 25.9398 66.8045 25.6847C66.3057 25.4295 65.8823 25.07 65.5344 24.6061C65.1979 24.1305 65.0297 23.5275 65.0297 22.7968C65.0297 22.1125 65.1979 21.5152 65.5344 21.0049C65.8823 20.483 66.3579 20.0829 66.9611 19.8045C67.5643 19.5261 68.2371 19.387 68.9795 19.387C70.0119 19.387 70.8992 19.6595 71.6417 20.2047C72.384 20.7381 72.9118 21.4746 73.2251 22.4141L71.5373 22.6924C71.3053 22.1589 70.9747 21.753 70.5454 21.4746C70.1162 21.1847 69.6117 21.0397 69.0317 21.0397C68.4053 21.0397 67.8891 21.1904 67.4831 21.492C67.0771 21.782 66.8741 22.1821 66.8741 22.6924C66.8741 23.0751 66.9901 23.3999 67.2221 23.6666C67.4657 23.9334 67.7615 24.1479 68.1095 24.3103C68.4691 24.4727 68.9447 24.6583 69.5363 24.8671C70.2902 25.1222 70.9166 25.3831 71.4154 25.6499C71.9258 25.9051 72.355 26.2704 72.703 26.7459C73.051 27.2215 73.2251 27.8187 73.2251 28.5378C73.2251 29.2337 73.0395 29.8426 72.6682 30.3644C72.3087 30.8864 71.8099 31.2923 71.1718 31.5822C70.5454 31.8606 69.8436 31.9998 69.0665 31.9998Z" fill="white"/>
<path d="M80.4277 30.3298L80.2714 31.8259H78.6879C77.7479 31.8259 77.035 31.594 76.5477 31.13C76.0604 30.6661 75.8164 29.9992 75.8164 29.1294V24.3452H74.2682V22.8317H75.8164L76.2868 20.2222H77.5216V22.8317H80.2714V24.3452H77.5216V29.1294C77.5216 29.9297 77.9103 30.3298 78.6879 30.3298H80.4277Z" fill="white"/>
<path d="M86.1146 32C85.1978 32 84.3802 31.8028 83.6612 31.4085C82.9422 31.0141 82.3794 30.4632 81.973 29.7557C81.5672 29.0483 81.364 28.2423 81.364 27.3376C81.364 26.433 81.5672 25.6269 81.973 24.9194C82.3794 24.2119 82.9422 23.661 83.6612 23.2667C84.3802 22.8608 85.1978 22.6578 86.1146 22.6578C87.0308 22.6578 87.8483 22.8608 88.5673 23.2667C89.2871 23.661 89.8491 24.2119 90.2556 24.9194C90.6613 25.6269 90.8645 26.433 90.8645 27.3376C90.8645 28.2423 90.6613 29.0483 90.2556 29.7557C89.8491 30.4632 89.2871 31.0141 88.5673 31.4085C87.8483 31.8028 87.0308 32 86.1146 32ZM86.1146 30.4343C86.9961 30.4343 87.709 30.1501 88.2548 29.5818C88.8114 29.0135 89.0901 28.2654 89.0901 27.3376C89.0901 26.4098 88.8114 25.6617 88.2548 25.0934C87.709 24.5135 86.9961 24.2236 86.1146 24.2236C85.2324 24.2236 84.5196 24.5135 83.9745 25.0934C83.4287 25.6617 83.1562 26.4098 83.1562 27.3376C83.1562 28.2538 83.4287 29.0019 83.9745 29.5818C84.5196 30.1501 85.2324 30.4343 86.1146 30.4343Z" fill="white"/>
<path d="M92.6926 31.8259V22.8317H93.9282L94.2939 24.1191C94.5602 23.6667 94.8913 23.342 95.2854 23.1449C95.6796 22.936 96.1499 22.8317 96.695 22.8317H97.1122L97.2516 24.467H96.277C95.6511 24.467 95.1807 24.6468 94.8682 25.0063C94.5549 25.3658 94.3978 25.8529 94.3978 26.4676V31.8259H92.6926Z" fill="white"/>
<path d="M107 27.268C107 27.5 106.995 27.6797 106.983 27.8073H99.5527C99.6458 28.6076 99.9591 29.2454 100.493 29.721C101.026 30.1965 101.705 30.4343 102.528 30.4343C103.097 30.4343 103.601 30.324 104.042 30.1038C104.494 29.8718 104.837 29.5702 105.069 29.1991L106.67 29.46C106.322 30.2719 105.759 30.8982 104.982 31.3389C104.216 31.7796 103.363 32 102.424 32C101.531 32 100.731 31.8028 100.023 31.4085C99.3156 31.0026 98.7644 30.4458 98.3702 29.7384C97.9753 29.0309 97.7782 28.2306 97.7782 27.3376C97.7782 26.433 97.9753 25.6269 98.3702 24.9194C98.7644 24.2119 99.3094 23.661 100.005 23.2667C100.701 22.8608 101.496 22.6578 102.39 22.6578C103.271 22.6578 104.059 22.8608 104.755 23.2667C105.463 23.661 106.014 24.2119 106.409 24.9194C106.803 25.6153 107 26.3982 107 27.268ZM102.39 24.1713C101.705 24.1713 101.113 24.3743 100.614 24.7802C100.127 25.1862 99.8021 25.7313 99.6397 26.4156H105.139C104.988 25.7429 104.663 25.2036 104.164 24.7976C103.677 24.3801 103.085 24.1713 102.39 24.1713Z" fill="white"/>
<path d="M47.1963 14.8571C46.5866 14.8571 46.0385 14.7134 45.552 14.4262C45.0655 14.1326 44.6836 13.7267 44.4065 13.2084C44.1355 12.69 44 12.1061 44 11.4566C44 10.8071 44.1355 10.2263 44.4065 9.71425C44.6836 9.19591 45.0624 8.7931 45.5427 8.50583C46.0293 8.21231 46.5774 8.06555 47.1871 8.06555C47.8461 8.06555 48.4312 8.23417 48.9423 8.5714C49.4597 8.90239 49.8292 9.35204 50.0509 9.92034L49.1086 10.0702C48.9362 9.72049 48.6806 9.44883 48.3419 9.25524C48.0093 9.05539 47.6336 8.95547 47.2148 8.95547C46.7837 8.95547 46.3988 9.06164 46.0601 9.27397C45.7275 9.4863 45.4658 9.78295 45.2748 10.1639C45.0901 10.5386 44.9977 10.9695 44.9977 11.4566C44.9977 11.95 45.0901 12.3871 45.2748 12.7681C45.4658 13.1428 45.7306 13.4363 46.0693 13.6486C46.408 13.861 46.796 13.9671 47.2333 13.9671C47.6644 13.9671 48.0462 13.8672 48.3788 13.6674C48.7175 13.4613 48.9762 13.174 49.1548 12.8056L50.0971 12.9554C49.863 13.5362 49.4843 13.9984 48.9608 14.3418C48.4373 14.6853 47.8492 14.8571 47.1963 14.8571Z" fill="white"/>
<path d="M54.9241 14.7634H53.7324L51.9679 12.7587H51.6816V14.7634H50.7762V9.92035H51.6816V11.8782H51.9587L53.6493 9.92035H54.7393L52.6885 12.2622L54.9241 14.7634Z" fill="white"/>
<path d="M57.077 9.8266C57.6682 9.8266 58.1332 10.0233 58.4719 10.4168C58.8168 10.804 58.9892 11.3473 58.9892 12.0467V14.7633H58.3426L58.1301 14.0045C57.9761 14.2481 57.7698 14.4511 57.5112 14.6134C57.2525 14.7758 56.9415 14.857 56.5781 14.857C56.2579 14.857 55.9715 14.7914 55.719 14.6603C55.4665 14.5291 55.2694 14.348 55.1278 14.117C54.9861 13.8796 54.9153 13.6142 54.9153 13.3207C54.9153 12.8648 55.0939 12.4995 55.4511 12.2247C55.8083 11.9499 56.3256 11.8125 57.0031 11.8125H58.0839C58.0593 11.4316 57.9546 11.1381 57.7698 10.932C57.5851 10.7196 57.3387 10.6135 57.0308 10.6135C56.7968 10.6135 56.5904 10.6697 56.4118 10.7821C56.2332 10.8945 56.0977 11.0413 56.0054 11.2224L55.1647 11.0819C55.2879 10.6947 55.525 10.3887 55.876 10.1638C56.2271 9.93901 56.6274 9.8266 57.077 9.8266ZM56.7721 14.0795C57.1601 14.0795 57.4742 13.9515 57.7144 13.6954C57.9607 13.4331 58.0839 13.074 58.0839 12.6181V12.5619H57.0308C56.2302 12.5619 55.8298 12.8055 55.8298 13.2926C55.8298 13.5299 55.9161 13.7204 56.0885 13.864C56.261 14.0077 56.4888 14.0795 56.7721 14.0795Z" fill="white"/>
<path d="M62.537 13.0023C62.3892 13.071 62.2137 13.1241 62.0105 13.1615C61.8072 13.199 61.6071 13.2177 61.41 13.2177C60.8373 13.2177 60.3969 13.0554 60.089 12.7306C59.781 12.4059 59.6271 11.9469 59.6271 11.3536V9.92035H60.5324V11.3536C60.5324 12.0468 60.8619 12.3934 61.5209 12.3934C61.9212 12.3934 62.2599 12.3216 62.537 12.1779V9.92035H63.4424V14.7634H62.537V13.0023Z" fill="white"/>
<path d="M66.3875 9.8266C66.9788 9.8266 67.4437 10.0233 67.7825 10.4168C68.1273 10.804 68.2998 11.3473 68.2998 12.0467V14.7633H67.6531L67.4407 14.0045C67.2867 14.2481 67.0804 14.4511 66.8217 14.6134C66.563 14.7758 66.252 14.857 65.8887 14.857C65.5684 14.857 65.282 14.7914 65.0295 14.6603C64.777 14.5291 64.58 14.348 64.4383 14.117C64.2967 13.8796 64.2258 13.6142 64.2258 13.3207C64.2258 12.8648 64.4044 12.4995 64.7616 12.2247C65.1188 11.9499 65.6362 11.8125 66.3136 11.8125H67.3945C67.3698 11.4316 67.2651 11.1381 67.0804 10.932C66.8956 10.7196 66.6493 10.6135 66.3413 10.6135C66.1073 10.6135 65.901 10.6697 65.7224 10.7821C65.5438 10.8945 65.4083 11.0413 65.3159 11.2224L64.4753 11.0819C64.5984 10.6947 64.8355 10.3887 65.1866 10.1638C65.5376 9.93901 65.9379 9.8266 66.3875 9.8266ZM66.0827 14.0795C66.4707 14.0795 66.7848 13.9515 67.0249 13.6954C67.2713 13.4331 67.3945 13.074 67.3945 12.6181V12.5619H66.3413C65.5407 12.5619 65.1404 12.8055 65.1404 13.2926C65.1404 13.5299 65.2266 13.7204 65.3991 13.864C65.5715 14.0077 65.7994 14.0795 66.0827 14.0795Z" fill="white"/>
<path d="M70.6466 14.7634H69.3071V9.92036H70.1847V13.733H70.3233L72.2541 9.92036H73.5936V14.7634H72.7159V10.9602H72.5774L70.6466 14.7634ZM71.4596 9.29273C71.0593 9.29273 70.7236 9.18656 70.4526 8.97423C70.1878 8.75565 70.0308 8.43091 69.9815 8H70.7205C70.7513 8.19984 70.8283 8.35285 70.9515 8.45901C71.0808 8.55893 71.2502 8.60889 71.4596 8.60889C71.669 8.60889 71.8353 8.55893 71.9584 8.45901C72.0878 8.35285 72.1648 8.19984 72.1894 8H72.9377C72.8822 8.43091 72.719 8.75565 72.448 8.97423C72.1832 9.18656 71.8537 9.29273 71.4596 9.29273Z" fill="white"/>
<path d="M76.7402 14.7634H75.8348V10.7634H74.1814V9.92035H78.3938V10.7634H76.7402V14.7634Z" fill="white"/>
<path d="M83.4348 12.309C83.4348 12.4339 83.4318 12.5307 83.4256 12.5994H79.481C79.5302 13.0303 79.6965 13.3738 79.9798 13.6298C80.2631 13.8859 80.6234 14.0139 81.0607 14.0139C81.3624 14.0139 81.6303 13.9546 81.8644 13.8359C82.1046 13.711 82.2862 13.5487 82.4094 13.3488L83.2593 13.4893C83.0745 13.9265 82.7759 14.2637 82.3632 14.501C81.9567 14.7383 81.5041 14.857 81.0052 14.857C80.531 14.857 80.1061 14.7508 79.7304 14.5385C79.3547 14.3199 79.0622 14.0202 78.8528 13.6392C78.6434 13.2583 78.5387 12.8274 78.5387 12.3465C78.5387 11.8594 78.6434 11.4253 78.8528 11.0444C79.0622 10.6634 79.3516 10.3668 79.7212 10.1545C80.0907 9.93589 80.5125 9.8266 80.9868 9.8266C81.4548 9.8266 81.8736 9.93589 82.2431 10.1545C82.6188 10.3668 82.9113 10.6634 83.1207 11.0444C83.3301 11.4191 83.4348 11.8406 83.4348 12.309ZM80.9868 10.6416C80.6234 10.6416 80.3093 10.7509 80.0445 10.9694C79.7858 11.188 79.6134 11.4815 79.5272 11.85H82.4464C82.3663 11.4878 82.1939 11.1974 81.929 10.9788C81.6704 10.754 81.3563 10.6416 80.9868 10.6416Z" fill="white"/>
<path d="M87.4995 14.7634H86.16V9.92035H87.0376V13.733H87.1762L89.107 9.92035H90.4465V14.7634H89.5689V10.9602H89.4303L87.4995 14.7634Z" fill="white"/>
<path d="M94.1109 12.2903C94.3634 12.3652 94.5728 12.5026 94.7391 12.7025C94.9053 12.896 94.9885 13.1365 94.9885 13.4238C94.9885 13.6923 94.9115 13.9359 94.7575 14.1544C94.6036 14.3668 94.3818 14.5385 94.0924 14.6696C93.8091 14.7945 93.4796 14.857 93.1039 14.857C92.5989 14.857 92.1647 14.7383 91.8014 14.501C91.438 14.2575 91.1978 13.9327 91.0808 13.5268L91.9215 13.3863C92.1247 13.8359 92.5158 14.0608 93.0947 14.0608C93.4149 14.0608 93.6582 14.0014 93.8245 13.8828C93.9969 13.7579 94.0832 13.5861 94.0832 13.3676C94.0832 13.174 94.0031 13.0178 93.843 12.8992C93.689 12.7805 93.4396 12.7212 93.0947 12.7212H92.4665V11.9156H93.0947C93.3903 11.9156 93.6151 11.8594 93.7691 11.747C93.9292 11.6345 94.0092 11.4847 94.0092 11.2973C94.0092 11.0975 93.923 10.9351 93.7506 10.8102C93.5843 10.6853 93.378 10.6228 93.1316 10.6228C92.8915 10.6228 92.6759 10.6822 92.485 10.8008C92.2941 10.9195 92.1493 11.0819 92.0508 11.2879L91.2101 11.1381C91.3518 10.7196 91.5951 10.398 91.9399 10.1732C92.291 9.94213 92.6975 9.8266 93.1594 9.8266C93.4919 9.8266 93.7906 9.88593 94.0554 10.0046C94.3264 10.1232 94.5358 10.2887 94.6836 10.5011C94.8376 10.7134 94.9146 10.9507 94.9146 11.213C94.9146 11.4815 94.8407 11.7095 94.6929 11.8968C94.5451 12.0842 94.3511 12.2153 94.1109 12.2903Z" fill="white"/>
</svg>
